<?xml version="1.0" encoding="UTF-8" standalone="no"?>
<!DOCTYPE svg PUBLIC "-//W3C//DTD SVG 20010904//EN"
              "http://www.w3.org/TR/2001/REC-SVG-20010904/DTD/svg10.dtd">

<svg xmlns="http://www.w3.org/2000/svg" fog-start="694,499" fog-face="E" fog-scale="20" >
  <path fill="#555" stroke="#ccc" stroke-width="1"
        d="M 395.00,0.00
           C 395.00,0.00 395.00,176.00 395.00,176.00
             395.00,176.00 318.00,176.00 318.00,176.00
             318.00,176.00 320.29,178.41 320.29,178.41
             320.29,178.41 338.00,179.00 338.00,179.00
             338.00,179.00 395.00,179.00 395.00,179.00
             395.00,179.00 385.41,210.00 385.41,210.00
             385.41,210.00 386.83,226.00 386.83,226.00
             386.83,226.00 390.00,262.00 390.00,262.00
             390.00,262.00 391.00,282.00 391.00,282.00
             391.00,282.00 370.00,283.00 370.00,283.00
             370.00,283.00 359.00,283.96 359.00,283.96
             359.00,283.96 344.00,283.96 344.00,283.96
             344.00,283.96 327.00,285.00 327.00,285.00
             327.00,285.00 267.00,287.00 267.00,287.00
             267.00,287.00 255.00,287.96 255.00,287.96
             255.00,287.96 241.00,287.96 241.00,287.96
             241.00,287.96 229.00,288.96 229.00,288.96
             229.00,288.96 215.00,288.96 215.00,288.96
             215.00,288.96 203.00,289.96 203.00,289.96
             203.00,289.96 189.00,289.96 189.00,289.96
             189.00,289.96 177.00,290.96 177.00,290.96
             177.00,290.96 163.00,290.96 163.00,290.96
             163.00,290.96 146.00,292.00 146.00,292.00
             146.00,292.00 85.00,294.00 85.00,294.00
             85.00,294.00 73.00,294.96 73.00,294.96
             73.00,294.96 59.00,294.96 59.00,294.96
             59.00,294.96 42.00,296.00 42.00,296.00
             42.00,296.00 49.55,263.00 49.55,263.00
             49.55,263.00 54.42,235.00 54.42,235.00
             54.42,235.00 60.72,199.00 60.72,199.00
             60.72,199.00 64.17,163.00 64.17,163.00
             64.17,163.00 71.17,87.00 71.17,87.00
             71.17,87.00 76.17,33.00 76.17,33.00
             76.17,33.00 79.00,2.00 79.00,2.00
             79.00,2.00 72.00,2.00 72.00,2.00
             72.00,2.00 69.17,33.00 69.17,33.00
             69.17,33.00 63.17,98.00 63.17,98.00
             63.17,98.00 57.17,163.00 57.17,163.00
             57.17,163.00 53.57,200.00 53.57,200.00
             53.57,200.00 42.20,264.00 42.20,264.00
             42.20,264.00 35.00,296.00 35.00,296.00
             35.00,296.00 27.00,296.00 27.00,296.00
             27.00,296.00 27.00,299.00 27.00,299.00
             27.00,299.00 34.00,299.00 34.00,299.00
             34.00,299.00 23.44,344.00 23.44,344.00
             23.44,344.00 19.84,379.00 19.84,379.00
             19.84,379.00 18.16,394.00 18.16,394.00
             18.16,394.00 16.40,400.40 16.40,400.40
             16.40,400.40 8.00,402.00 8.00,402.00
             8.00,402.00 0.00,402.00 0.00,402.00
             0.00,402.00 0.00,405.00 0.00,405.00
             0.00,405.00 17.00,404.00 17.00,404.00
             17.00,404.00 12.00,457.00 12.00,457.00
             12.00,457.00 56.00,450.41 56.00,450.41
             56.00,450.41 127.00,438.75 127.00,438.75
             127.00,438.75 170.00,432.00 170.00,432.00
             170.00,432.00 170.00,448.00 170.00,448.00
             170.00,448.00 169.00,463.00 169.00,463.00
             169.00,463.00 168.00,488.00 168.00,488.00
             168.00,488.00 174.00,488.00 174.00,488.00
             174.00,488.00 175.00,447.00 175.00,447.00
             175.00,447.00 176.00,431.00 176.00,431.00
             199.54,430.79 226.37,422.02 241.00,422.00
             241.00,422.00 248.00,422.00 248.00,422.00
             248.00,422.00 263.00,421.00 263.00,421.00
             263.00,421.00 321.00,420.00 321.00,420.00
             321.00,420.00 337.00,419.00 337.00,419.00
             337.00,419.00 356.00,419.00 356.00,419.00
             356.00,419.00 356.00,478.00 356.00,478.00
             356.00,478.00 361.00,478.00 361.00,478.00
             361.00,478.00 361.00,419.00 361.00,419.00
             361.00,419.00 500.00,419.00 500.00,419.00
             500.00,419.00 512.00,418.04 512.00,418.04
             512.00,418.04 525.00,418.04 525.00,418.04
             525.00,418.04 526.00,433.00 526.00,433.00
             526.00,433.00 526.00,458.00 526.00,458.00
             526.00,458.00 527.00,475.00 527.00,475.00
             527.00,475.00 532.00,475.00 532.00,475.00
             532.00,475.00 531.00,418.00 531.00,418.00
             531.00,418.00 549.00,418.00 549.00,418.00
             549.00,418.00 560.00,417.04 560.00,417.04
             560.00,417.04 575.00,417.04 575.00,417.04
             575.00,417.04 587.00,416.04 587.00,416.04
             587.00,416.04 603.00,416.04 603.00,416.04
             603.00,416.04 618.00,414.96 618.00,414.96
             618.00,414.96 634.00,414.96 634.00,414.96
             634.00,414.96 646.00,413.96 646.00,413.96
             646.00,413.96 661.00,413.96 661.00,413.96
             661.00,413.96 673.00,413.00 673.00,413.00
             673.00,413.00 709.00,413.00 709.00,413.00
             709.00,413.00 726.00,412.00 726.00,412.00
             726.00,412.00 726.00,440.00 726.00,440.00
             726.00,440.00 744.00,439.00 744.00,439.00
             744.00,439.00 745.20,465.00 745.20,465.00
             745.02,468.90 746.61,478.06 745.20,480.86
             743.01,486.41 734.52,482.79 733.40,488.15
             732.99,490.13 734.32,494.84 734.79,497.00
             736.29,503.97 738.42,510.88 739.00,518.00
             739.00,518.00 734.00,517.00 734.00,517.00
             734.00,517.00 735.00,514.00 735.00,514.00
             730.59,514.76 730.51,515.72 730.00,520.00
             730.00,520.00 744.00,521.00 744.00,521.00
             744.00,521.00 737.00,488.00 737.00,488.00
             737.00,488.00 750.00,486.00 750.00,486.00
             750.00,486.00 749.00,470.00 749.00,470.00
             749.00,470.00 749.00,460.00 749.00,460.00
             749.00,460.00 748.00,448.00 748.00,448.00
             748.00,448.00 747.00,436.00 747.00,436.00
             747.00,436.00 730.00,437.00 730.00,437.00
             730.00,437.00 730.00,412.00 730.00,412.00
             730.00,412.00 769.00,412.00 769.00,412.00
             769.00,412.00 802.00,414.00 802.00,414.00
             802.00,414.00 803.00,449.00 803.00,449.00
             803.00,449.00 804.00,471.00 804.00,471.00
             804.00,471.00 809.00,471.00 809.00,471.00
             809.00,471.00 809.00,452.00 809.00,452.00
             809.00,452.00 808.00,437.00 808.00,437.00
             808.00,437.00 807.00,414.00 807.00,414.00
             807.00,414.00 834.00,415.91 834.00,415.91
             834.00,415.91 879.00,408.59 879.00,408.59
             879.00,408.59 905.00,405.00 905.00,405.00
             905.00,405.00 952.00,405.00 952.00,405.00
             952.00,405.00 973.00,406.00 973.00,406.00
             973.00,406.00 974.00,422.00 974.00,422.00
             974.00,422.00 974.00,440.00 974.00,440.00
             974.00,440.00 974.96,451.00 974.96,451.00
             974.96,451.00 974.96,465.00 974.96,465.00
             974.96,465.00 980.00,465.00 980.00,465.00
             980.00,465.00 980.00,441.00 980.00,441.00
             980.00,441.00 979.00,425.00 979.00,425.00
             979.00,425.00 979.00,406.00 979.00,406.00
             979.00,406.00 1019.00,406.00 1019.00,406.00
             1019.00,406.00 1041.00,405.00 1041.00,405.00
             1041.00,405.00 1043.58,448.00 1043.58,448.00
             1043.96,450.87 1043.06,460.37 1047.00,460.37
             1051.06,460.37 1049.02,449.81 1049.00,447.00
             1049.00,447.00 1047.00,416.00 1047.00,416.00
             1046.98,411.08 1047.20,409.92 1046.00,405.00
             1046.00,405.00 1085.00,403.00 1085.00,403.00
             1085.00,403.00 1095.00,401.87 1095.00,401.87
             1095.00,401.87 1105.00,401.87 1105.00,401.87
             1107.53,401.74 1111.59,400.69 1113.85,401.87
             1117.55,403.11 1116.99,407.75 1117.00,411.00
             1117.00,411.00 1118.00,442.00 1118.00,442.00
             1118.00,442.00 1119.00,462.00 1119.00,462.00
             1119.00,462.00 1124.00,462.00 1124.00,462.00
             1124.00,462.00 1124.00,445.00 1124.00,445.00
             1124.00,445.00 1123.00,425.00 1123.00,425.00
             1123.00,425.00 1122.04,413.00 1122.04,413.00
             1122.04,413.00 1122.04,401.00 1122.04,401.00
             1122.04,401.00 1139.00,399.91 1139.00,399.91
             1139.00,399.91 1157.00,398.08 1157.00,398.08
             1159.56,397.88 1169.80,397.25 1171.40,395.98
             1173.38,394.41 1173.00,390.30 1173.00,388.00
             1173.00,388.00 1172.00,366.00 1172.00,366.00
             1172.00,366.00 1172.00,362.00 1172.00,362.00
             1171.98,352.19 1169.70,348.09 1166.67,339.00
             1166.67,339.00 1149.08,287.00 1149.08,287.00
             1149.08,287.00 1149.08,278.00 1149.08,278.00
             1149.08,278.00 1144.83,229.00 1144.83,229.00
             1144.83,229.00 1140.83,179.00 1140.83,179.00
             1140.83,179.00 1133.15,115.00 1133.15,115.00
             1133.15,115.00 1126.28,58.00 1126.28,58.00
             1126.28,58.00 1121.87,27.00 1121.87,27.00
             1121.87,27.00 1116.88,7.00 1116.88,7.00
             1116.31,4.68 1115.92,0.81 1112.91,0.54
             1109.33,0.22 1109.26,3.50 1109.68,6.02
             1109.68,6.02 1114.13,25.00 1114.13,25.00
             1118.41,42.13 1120.65,68.63 1122.85,87.00
             1122.85,87.00 1126.00,110.00 1126.00,110.00
             1126.00,110.00 1087.00,110.00 1087.00,110.00
             1087.00,110.00 1088.00,81.00 1088.00,81.00
             1088.00,81.00 1032.00,88.00 1032.00,88.00
             1032.00,88.00 1030.00,65.00 1030.00,65.00
             1030.00,65.00 1099.00,57.00 1099.00,57.00
             1099.00,57.00 1097.41,54.06 1097.41,54.06
             1097.41,54.06 1081.00,54.95 1081.00,54.95
             1081.00,54.95 1024.00,62.00 1024.00,62.00
             1024.00,62.00 1027.00,92.00 1027.00,92.00
             1027.00,92.00 1060.00,88.28 1060.00,88.28
             1060.00,88.28 1082.00,85.00 1082.00,85.00
             1082.00,85.00 1082.00,95.00 1082.00,95.00
             1081.98,109.83 1079.68,109.98 1070.00,110.00
             1044.89,110.04 1019.98,111.44 995.00,113.83
             995.00,113.83 976.00,115.28 976.00,115.28
             976.00,115.28 952.00,117.13 952.00,117.13
             949.05,117.63 944.04,118.76 941.43,117.13
             939.00,115.32 938.56,110.73 938.00,108.00
             938.00,108.00 933.00,87.00 933.00,87.00
             933.00,87.00 963.00,85.09 963.00,85.09
             963.00,85.09 995.00,83.00 995.00,83.00
             995.00,83.00 995.00,79.00 995.00,79.00
             995.00,79.00 964.00,81.00 964.00,81.00
             964.00,81.00 959.00,45.00 959.00,45.00
             959.00,45.00 995.00,41.00 995.00,41.00
             995.00,41.00 998.00,69.00 998.00,69.00
             998.00,69.00 1003.00,68.00 1003.00,68.00
             1003.00,68.00 1000.00,41.00 1000.00,41.00
             1000.00,41.00 1051.00,35.00 1051.00,35.00
             1051.00,35.00 1050.00,31.00 1050.00,31.00
             1050.00,31.00 1000.00,37.00 1000.00,37.00
             1000.00,37.00 998.00,21.00 998.00,21.00
             990.00,22.84 994.65,27.06 993.84,32.98
             993.61,34.67 993.17,35.99 991.69,36.98
             990.10,38.04 986.93,38.04 985.00,38.28
             985.00,38.28 969.00,39.97 969.00,39.97
             966.73,40.20 962.31,41.12 960.43,39.97
             957.87,38.33 958.11,34.61 957.97,32.00
             957.97,32.00 956.00,12.00 956.00,12.00
             949.20,13.20 951.07,17.57 951.72,23.00
             951.72,23.00 953.00,42.00 953.00,42.00
             953.00,42.00 935.00,43.72 935.00,43.72
             930.49,44.28 928.65,43.30 927.00,48.00
             927.00,48.00 954.00,46.00 954.00,46.00
             954.00,46.00 959.00,82.00 959.00,82.00
             959.00,82.00 915.00,84.00 915.00,84.00
             915.00,84.00 897.00,84.00 897.00,84.00
             897.00,84.00 900.00,66.00 900.00,66.00
             900.00,66.00 884.00,65.00 884.00,65.00
             884.00,65.00 889.00,17.00 889.00,17.00
             889.00,17.00 883.00,17.00 883.00,17.00
             883.00,17.00 879.00,64.98 879.00,64.98
             879.00,64.98 861.00,64.98 861.00,64.98
             861.00,64.98 852.00,64.21 852.00,64.21
             852.00,64.21 811.00,70.00 811.00,70.00
             811.00,70.00 817.47,89.00 817.47,89.00
             817.47,89.00 818.00,102.00 818.00,102.00
             818.00,102.00 774.00,103.00 774.00,103.00
             774.00,103.00 774.00,85.00 774.00,85.00
             774.00,85.00 769.00,85.00 769.00,85.00
             769.00,85.00 769.00,105.00 769.00,105.00
             769.00,105.00 728.00,107.09 728.00,107.09
             728.00,107.09 715.00,108.00 715.00,108.00
             714.40,111.35 714.04,117.97 711.49,120.15
             709.58,121.77 705.47,122.17 703.00,122.59
             703.00,122.59 686.00,125.32 686.00,125.32
             683.87,125.77 679.40,126.86 677.69,125.32
             676.11,123.73 676.98,117.34 677.00,115.00
             677.00,115.00 694.04,114.00 694.04,114.00
             694.04,114.00 694.04,98.00 694.04,98.00
             694.04,98.00 695.13,86.00 695.13,86.00
             695.13,86.00 695.13,69.00 695.13,69.00
             695.01,65.12 696.63,53.82 695.13,51.31
             694.00,48.46 689.68,49.01 687.00,49.00
             687.00,49.00 672.00,49.00 672.00,49.00
             672.00,46.88 671.83,43.06 672.60,41.17
             673.62,38.65 676.42,36.87 678.21,34.70
             680.65,31.76 682.47,27.72 683.32,24.00
             684.60,18.43 684.23,5.50 679.58,1.60
             677.47,-0.18 674.59,0.02 672.00,0.00
             669.24,-0.02 660.29,-0.31 658.21,0.60
             653.64,2.59 651.95,13.52 652.21,18.00
             652.51,23.35 654.74,30.87 658.34,34.90
             661.81,38.78 665.28,39.23 666.36,42.21
             668.54,48.21 661.99,48.97 658.00,49.00
             658.00,49.00 648.00,49.00 648.00,49.00
             639.79,49.16 641.00,51.00 641.00,65.00
             641.00,65.00 641.00,90.00 641.00,90.00
             641.00,90.00 640.04,102.00 640.04,102.00
             640.04,102.00 640.04,118.00 640.04,118.00
             640.04,118.00 670.00,116.00 670.00,116.00
             670.00,119.00 670.60,125.10 668.40,127.26
             666.56,129.08 660.65,129.64 658.00,130.08
             658.00,130.08 647.00,131.96 647.00,131.96
             647.00,131.96 638.00,131.96 638.00,131.96
             638.00,131.96 628.00,133.00 628.00,133.00
             628.00,133.00 586.00,134.00 586.00,134.00
             586.00,134.00 571.00,135.00 571.00,135.00
             565.87,135.06 549.13,134.24 545.56,137.01
             543.46,138.63 542.93,143.45 542.35,146.00
             542.35,146.00 537.00,172.00 537.00,172.00
             537.00,172.00 521.00,173.00 521.00,173.00
             521.00,173.00 503.00,173.00 503.00,173.00
             503.00,173.00 488.00,174.00 488.00,174.00
             488.00,174.00 469.00,174.00 469.00,174.00
             469.00,174.00 454.00,175.00 454.00,175.00
             454.00,175.00 436.00,175.00 436.00,175.00
             436.00,175.00 421.00,176.00 421.00,176.00
             421.00,176.00 399.00,176.00 399.00,176.00
             399.00,176.00 399.00,0.00 399.00,0.00
             399.00,0.00 395.00,0.00 395.00,0.00 Z
           M 689.00,54.00
           C 689.00,54.00 688.00,73.00 688.00,73.00
             688.00,73.00 688.00,90.00 688.00,90.00
             688.00,90.00 687.00,110.00 687.00,110.00
             687.00,110.00 667.00,111.96 667.00,111.96
             667.00,111.96 657.00,111.96 657.00,111.96
             657.00,111.96 647.00,113.00 647.00,113.00
             647.00,113.00 647.00,97.00 647.00,97.00
             647.00,97.00 648.00,82.00 648.00,82.00
             648.00,82.00 648.00,54.00 648.00,54.00
             648.00,54.00 689.00,54.00 689.00,54.00 Z
           M 894.00,69.00
           C 893.79,75.05 893.19,75.88 887.00,76.00
             887.00,76.00 850.00,76.00 850.00,76.00
             850.00,76.00 850.00,68.00 850.00,68.00
             850.00,68.00 872.00,69.00 872.00,69.00
             872.00,69.00 894.00,69.00 894.00,69.00 Z
           M 844.00,69.00
           C 844.00,72.57 844.21,84.02 846.60,86.40
             848.53,88.32 852.46,87.99 855.00,88.00
             855.00,88.00 888.00,88.00 888.00,88.00
             890.30,88.00 894.41,87.62 895.98,89.60
             897.44,91.45 897.00,98.46 897.00,101.00
             897.00,101.00 897.00,130.00 897.00,130.00
             897.00,130.00 848.00,132.00 848.00,132.00
             848.00,132.00 827.00,133.00 827.00,133.00
             827.00,133.00 813.00,134.04 813.00,134.04
             813.00,134.04 802.00,134.04 802.00,134.04
             802.00,134.04 790.00,135.00 790.00,135.00
             790.00,135.00 776.00,136.00 776.00,136.00
             776.00,136.00 774.00,107.00 774.00,107.00
             774.00,107.00 808.00,106.00 808.00,106.00
             808.00,106.00 824.00,105.00 824.00,105.00
             824.00,86.60 823.91,90.29 817.00,73.00
             817.00,73.00 844.00,69.00 844.00,69.00 Z
           M 892.00,80.00
           C 892.00,80.00 892.00,85.00 892.00,85.00
             892.00,85.00 872.00,84.00 872.00,84.00
             872.00,84.00 851.00,84.00 851.00,84.00
             851.00,84.00 851.00,80.96 851.00,80.96
             851.00,80.96 863.00,80.96 863.00,80.96
             863.00,80.96 875.00,80.00 875.00,80.00
             875.00,80.00 892.00,80.00 892.00,80.00 Z
           M 943.00,150.00
           C 943.00,150.00 926.00,151.00 926.00,151.00
             926.00,151.00 933.21,185.00 933.21,185.00
             933.21,185.00 944.00,236.00 944.00,236.00
             944.00,236.00 920.00,237.00 920.00,237.00
             920.00,237.00 902.00,237.00 902.00,237.00
             902.00,237.00 887.00,238.00 887.00,238.00
             887.00,238.00 888.00,299.00 888.00,299.00
             888.00,299.00 891.17,337.00 891.17,337.00
             891.17,337.00 893.44,351.00 893.44,351.00
             893.44,351.00 899.65,370.00 899.65,370.00
             899.65,370.00 894.00,401.00 894.00,401.00
             894.00,401.00 856.00,407.41 856.00,407.41
             856.00,407.41 829.00,411.00 829.00,411.00
             829.00,411.00 819.00,410.04 819.00,410.04
             819.00,410.04 807.00,410.04 807.00,410.04
             807.00,410.04 807.00,395.00 807.00,395.00
             807.00,395.00 801.00,395.00 801.00,395.00
             801.00,395.00 802.00,409.00 802.00,409.00
             802.00,409.00 788.00,408.00 788.00,408.00
             788.00,408.00 779.00,408.00 779.00,408.00
             779.00,408.00 769.00,407.00 769.00,407.00
             769.00,407.00 738.00,407.00 738.00,407.00
             738.00,407.00 722.00,408.00 722.00,408.00
             722.00,408.00 677.00,408.00 677.00,408.00
             677.00,408.00 661.00,409.04 661.00,409.04
             661.00,409.04 645.00,409.04 645.00,409.04
             645.00,409.04 633.00,410.00 633.00,410.00
             633.00,410.00 612.00,411.00 612.00,411.00
             612.00,411.00 613.00,390.00 613.00,390.00
             613.00,390.00 611.27,349.00 611.27,349.00
             611.27,349.00 607.40,329.51 607.40,329.51
             607.40,329.51 594.00,325.00 594.00,325.00
             594.41,321.91 595.43,316.97 594.69,314.01
             593.59,309.64 585.07,303.54 581.00,301.85
             577.43,300.37 572.38,300.00 569.18,297.91
             560.97,292.56 562.65,281.22 551.00,281.00
             551.00,281.00 528.00,281.00 528.00,281.00
             528.00,281.00 508.00,280.00 508.00,280.00
             508.00,280.00 508.00,258.00 508.00,258.00
             508.00,258.00 493.00,258.00 493.00,258.00
             493.00,258.00 493.00,244.00 493.00,244.00
             493.00,244.00 511.00,243.00 511.00,243.00
             511.00,243.00 518.36,241.40 518.36,241.40
             518.36,241.40 519.04,234.00 519.04,234.00
             519.04,234.00 519.04,218.00 519.04,218.00
             519.04,218.00 520.57,210.17 520.57,210.17
             520.57,210.17 532.00,208.00 532.00,208.00
             532.00,208.00 537.00,243.00 537.00,243.00
             537.00,243.00 543.00,243.00 543.00,243.00
             543.00,243.00 538.00,208.00 538.00,208.00
             538.00,208.00 567.00,206.00 567.00,206.00
             567.00,206.00 566.00,202.00 566.00,202.00
             566.00,202.00 538.00,204.00 538.00,204.00
             538.00,204.00 540.00,175.00 540.00,175.00
             540.00,175.00 612.00,169.00 612.00,169.00
             612.00,169.00 634.00,168.00 634.00,168.00
             634.00,168.00 651.00,167.00 651.00,167.00
             651.00,167.00 694.00,167.00 694.00,167.00
             694.00,167.00 706.00,167.96 706.00,167.96
             706.00,167.96 720.00,167.96 720.00,167.96
             720.00,167.96 717.32,121.00 717.32,121.00
             717.32,121.00 718.00,111.00 718.00,111.00
             718.00,111.00 734.00,109.91 734.00,109.91
             734.00,109.91 756.00,108.09 756.00,108.09
             756.00,108.09 770.00,107.00 770.00,107.00
             770.00,107.00 772.00,138.00 772.00,138.00
             772.00,138.00 787.00,138.00 787.00,138.00
             787.00,138.00 806.00,137.00 806.00,137.00
             806.00,137.00 827.00,136.00 827.00,136.00
             827.00,136.00 842.00,135.00 842.00,135.00
             842.00,135.00 870.00,134.00 870.00,134.00
             870.00,134.00 883.00,133.00 883.00,133.00
             886.68,132.96 895.82,133.79 898.40,131.26
             900.34,129.36 899.99,125.53 900.00,123.00
             900.00,123.00 900.00,89.00 900.00,89.00
             907.84,86.08 912.75,86.98 921.00,87.00
             923.04,87.00 926.76,86.76 928.42,88.02
             930.64,89.71 932.17,99.92 932.88,103.00
             932.88,103.00 943.00,150.00 943.00,150.00 Z
           M 1081.00,113.00
           C 1081.00,113.00 1085.00,157.00 1085.00,157.00
             1085.00,157.00 1018.00,157.00 1018.00,157.00
             1018.00,157.00 1017.04,172.00 1017.04,172.00
             1016.93,174.38 1017.30,178.50 1015.83,180.44
             1013.84,183.06 1003.52,183.29 1000.00,183.72
             1000.00,183.72 952.00,188.00 952.00,188.00
             952.00,188.00 945.79,144.00 945.79,144.00
             945.79,144.00 941.00,122.00 941.00,122.00
             941.00,122.00 952.00,121.09 952.00,121.09
             952.00,121.09 986.00,118.17 986.00,118.17
             1011.90,115.69 1037.98,114.04 1064.00,114.00
             1064.00,114.00 1081.00,113.00 1081.00,113.00 Z
           M 1126.00,113.00
           C 1126.00,113.00 1130.83,153.00 1130.83,153.00
             1130.83,153.00 1138.17,238.00 1138.17,238.00
             1138.17,238.00 1141.09,272.00 1141.09,272.00
             1141.09,272.00 1142.00,283.00 1142.00,283.00
             1142.00,283.00 1126.00,284.00 1126.00,284.00
             1126.00,284.00 1112.00,285.04 1112.00,285.04
             1112.00,285.04 1102.00,285.04 1102.00,285.04
             1102.00,285.04 1092.00,286.00 1092.00,286.00
             1092.00,286.00 1077.00,286.00 1077.00,286.00
             1077.00,286.00 1062.00,287.00 1062.00,287.00
             1062.00,287.00 980.00,288.00 980.00,288.00
             980.00,288.00 963.00,289.00 963.00,289.00
             963.00,289.00 966.51,316.79 966.51,316.79
             968.96,321.56 977.41,322.35 980.07,326.39
             981.95,329.48 980.50,335.53 980.07,339.00
             979.84,342.42 980.40,349.21 979.26,351.90
             977.56,355.93 967.16,360.79 963.00,362.00
             963.00,362.00 972.00,401.00 972.00,401.00
             972.00,401.00 955.00,401.00 955.00,401.00
             955.00,401.00 940.00,400.00 940.00,400.00
             940.00,400.00 898.00,400.00 898.00,400.00
             898.00,400.00 903.38,370.00 903.38,370.00
             903.38,370.00 897.44,352.00 897.44,352.00
             897.44,352.00 895.17,339.00 895.17,339.00
             895.17,339.00 892.00,301.00 892.00,301.00
             892.00,301.00 892.00,283.00 892.00,283.00
             892.00,283.00 891.00,268.00 891.00,268.00
             891.00,268.00 891.00,240.00 891.00,240.00
             891.00,240.00 925.00,240.00 925.00,240.00
             925.00,240.00 948.00,239.00 948.00,239.00
             948.00,239.00 939.21,196.00 939.21,196.00
             939.21,196.00 930.00,153.00 930.00,153.00
             930.00,153.00 943.00,152.00 943.00,152.00
             943.00,152.00 949.00,191.00 949.00,191.00
             949.00,191.00 1000.00,186.28 1000.00,186.28
             1003.80,185.83 1016.00,185.73 1018.42,183.40
             1021.13,180.79 1021.63,164.56 1022.00,160.00
             1022.00,160.00 1089.00,160.00 1089.00,160.00
             1089.00,160.00 1085.00,113.00 1085.00,113.00
             1085.00,113.00 1126.00,113.00 1126.00,113.00 Z
           M 714.00,124.00
           C 714.00,124.00 714.91,137.00 714.91,137.00
             714.91,137.00 716.00,165.00 716.00,165.00
             716.00,165.00 699.00,165.00 699.00,165.00
             699.00,165.00 684.00,164.00 684.00,164.00
             684.00,164.00 656.00,164.00 656.00,164.00
             656.00,164.00 641.00,165.04 641.00,165.04
             641.00,165.04 629.00,165.04 629.00,165.04
             629.00,165.04 619.00,166.00 619.00,166.00
             619.00,166.00 560.00,170.17 560.00,170.17
             560.00,170.17 541.00,172.00 541.00,172.00
             541.00,172.00 548.00,138.00 548.00,138.00
             548.00,138.00 592.00,137.00 592.00,137.00
             592.00,137.00 607.00,136.00 607.00,136.00
             607.00,136.00 621.00,136.00 621.00,136.00
             621.00,136.00 636.00,135.00 636.00,135.00
             655.50,134.78 674.78,130.10 694.00,126.92
             694.00,126.92 714.00,124.00 714.00,124.00 Z
           M 536.00,175.00
           C 536.00,175.00 534.58,197.00 534.58,197.00
             534.58,197.00 532.43,204.83 532.43,204.83
             532.43,204.83 515.00,207.00 515.00,207.00
             515.00,207.00 515.00,226.00 515.00,226.00
             515.00,226.00 516.00,240.00 516.00,240.00
             516.00,240.00 499.00,241.00 499.00,241.00
             499.00,241.00 448.00,243.00 448.00,243.00
             448.00,243.00 446.00,280.00 446.00,280.00
             446.00,280.00 432.00,281.00 432.00,281.00
             432.00,281.00 394.00,282.00 394.00,282.00
             394.00,282.00 394.00,262.00 394.00,262.00
             394.00,262.00 391.83,237.00 391.83,237.00
             391.83,237.00 389.36,210.00 389.36,210.00
             389.36,210.00 391.67,202.00 391.67,202.00
             391.67,202.00 396.42,187.00 396.42,187.00
             396.42,187.00 399.70,179.99 399.70,179.99
             399.70,179.99 407.00,179.00 407.00,179.00
             407.00,179.00 416.00,179.00 416.00,179.00
             416.00,179.00 431.00,178.00 431.00,178.00
             431.00,178.00 482.00,177.00 482.00,177.00
             482.00,177.00 498.00,176.00 498.00,176.00
             498.00,176.00 515.00,176.00 515.00,176.00
             515.00,176.00 536.00,175.00 536.00,175.00 Z
           M 488.00,244.00
           C 488.00,244.00 488.00,262.00 488.00,262.00
             488.00,262.00 502.00,262.00 502.00,262.00
             502.00,262.00 502.00,284.00 502.00,284.00
             502.00,284.00 528.00,284.00 528.00,284.00
             528.00,284.00 548.00,285.00 548.00,285.00
             559.81,285.22 557.68,295.67 566.09,300.91
             573.09,305.28 582.79,303.71 588.36,312.17
             591.05,316.25 587.33,322.62 590.02,326.57
             592.89,330.78 600.99,328.15 603.42,333.23
             603.42,333.23 606.27,351.00 606.27,351.00
             606.27,351.00 607.99,374.00 607.99,374.00
             607.99,374.00 607.00,388.00 607.00,388.00
             607.00,388.00 607.00,411.00 607.00,411.00
             607.00,411.00 569.00,412.00 569.00,412.00
             569.00,412.00 552.00,413.00 552.00,413.00
             552.00,413.00 531.00,414.00 531.00,414.00
             531.00,414.00 530.00,396.00 530.00,396.00
             530.00,396.00 525.00,396.00 525.00,396.00
             525.00,396.00 525.00,414.00 525.00,414.00
             525.00,414.00 361.00,414.00 361.00,414.00
             361.00,414.00 361.00,398.00 361.00,398.00
             361.00,398.00 356.00,398.00 356.00,398.00
             356.00,398.00 356.00,414.04 356.00,414.04
             356.00,414.04 339.00,414.04 339.00,414.04
             339.00,414.04 327.00,415.00 327.00,415.00
             327.00,415.00 270.00,416.00 270.00,416.00
             270.00,416.00 255.00,417.00 255.00,417.00
             255.00,417.00 241.00,417.00 241.00,417.00
             225.60,417.02 200.32,425.98 176.00,426.00
             176.00,426.00 176.00,410.00 176.00,410.00
             176.00,410.00 171.00,410.00 171.00,410.00
             171.00,410.00 171.00,418.00 171.00,418.00
             171.00,418.00 169.40,426.07 169.40,426.07
             169.40,426.07 159.00,428.43 159.00,428.43
             159.00,428.43 136.00,432.25 136.00,432.25
             136.00,432.25 56.00,445.42 56.00,445.42
             56.00,445.42 19.00,451.00 19.00,451.00
             19.00,451.00 22.16,421.00 22.16,421.00
             22.16,421.00 24.00,404.00 24.00,404.00
             24.00,404.00 66.00,403.00 66.00,403.00
             71.13,402.99 73.90,403.48 78.00,400.00
             78.00,400.00 24.00,401.00 24.00,401.00
             24.00,401.00 28.17,364.00 28.17,364.00
             28.17,364.00 30.46,343.00 30.46,343.00
             30.46,343.00 34.79,325.00 34.79,325.00
             34.79,325.00 38.79,308.00 38.79,308.00
             39.30,305.64 39.82,301.57 41.72,299.95
             44.10,297.94 50.93,298.00 54.00,298.00
             54.00,298.00 91.00,297.00 91.00,297.00
             91.00,297.00 106.00,296.00 106.00,296.00
             106.00,296.00 141.00,295.00 141.00,295.00
             141.00,295.00 153.00,294.04 153.00,294.04
             153.00,294.04 167.00,294.04 167.00,294.04
             167.00,294.04 179.00,293.04 179.00,293.04
             179.00,293.04 193.00,293.04 193.00,293.04
             193.00,293.04 205.00,292.04 205.00,292.04
             205.00,292.04 220.00,292.04 220.00,292.04
             220.00,292.04 236.00,290.96 236.00,290.96
             236.00,290.96 250.00,290.96 250.00,290.96
             250.00,290.96 262.00,290.00 262.00,290.00
             262.00,290.00 323.00,288.00 323.00,288.00
             323.00,288.00 335.00,287.04 335.00,287.04
             335.00,287.04 349.00,287.04 349.00,287.04
             349.00,287.04 366.00,286.00 366.00,286.00
             366.00,286.00 427.00,284.00 427.00,284.00
             427.00,284.00 449.00,283.00 449.00,283.00
             449.00,283.00 451.09,255.00 451.09,255.00
             451.09,255.00 452.00,246.00 452.00,246.00
             452.00,246.00 464.00,244.96 464.00,244.96
             464.00,244.96 477.00,244.96 477.00,244.96
             477.00,244.96 488.00,244.00 488.00,244.00 Z
           M 976.00,401.00
           C 976.00,401.00 967.00,364.00 967.00,364.00
             970.48,361.73 979.37,357.20 981.44,354.67
             985.00,350.33 983.72,342.35 984.09,337.00
             984.27,334.34 985.18,330.51 984.84,328.04
             983.82,320.67 972.52,321.46 969.74,314.90
             969.74,314.90 967.00,291.00 967.00,291.00
             967.00,291.00 1003.00,291.00 1003.00,291.00
             1003.00,291.00 1020.00,290.00 1020.00,290.00
             1020.00,290.00 1052.00,290.00 1052.00,290.00
             1052.00,290.00 1069.00,289.00 1069.00,289.00
             1069.00,289.00 1087.00,289.00 1087.00,289.00
             1087.00,289.00 1100.00,288.00 1100.00,288.00
             1100.00,288.00 1126.00,286.79 1126.00,286.79
             1128.95,287.00 1138.94,285.79 1140.57,286.79
             1143.29,287.88 1146.86,301.57 1148.00,305.00
             1148.00,305.00 1159.67,339.00 1159.67,339.00
             1162.35,347.05 1164.95,352.37 1165.00,361.00
             1165.00,361.00 1166.00,377.00 1166.00,377.00
             1166.03,379.85 1166.52,389.46 1164.98,391.40
             1163.56,393.19 1156.49,393.42 1154.00,393.72
             1154.00,393.72 1132.00,395.09 1132.00,395.09
             1132.00,395.09 1122.00,396.00 1122.00,396.00
             1122.00,396.00 1085.00,398.00 1085.00,398.00
             1085.00,398.00 1071.00,399.00 1071.00,399.00
             1071.00,399.00 1057.00,400.00 1057.00,400.00
             1057.00,400.00 1047.00,400.00 1047.00,400.00
             1047.00,400.00 1036.00,401.00 1036.00,401.00
             1036.00,401.00 1023.00,401.91 1023.00,401.91
             1023.00,401.91 1008.00,401.00 1008.00,401.00
             1008.00,401.00 976.00,401.00 976.00,401.00 Z" />
</svg>
